/* XPM */
static char * xinvaders_xpm[] = {
"24 16 3 1",
" 	c None",
".	c #007F00",
"+	c #FFFF00",
"      ..        ..      ",
"      ..        ..      ",
"  ..    ..    ..    ..  ",
"  ..    ..    ..    ..  ",
"  ..  ............  ..  ",
"  ..  ............  ..  ",
"  ......++....++......  ",
"  ......++....++......  ",
"    ................    ",
"    ................    ",
"      ............      ",
"      ............      ",
"      ..        ..      ",
"      ..        ..      ",
"    ..            ..    ",
"    ..            ..    "};
